<svg width="24" height="24" viewBox="0 0 24 24" fill="none" xmlns="http://www.w3.org/2000/svg">
<g id="mic">
<g id="Vector">
<path fill-rule="evenodd" clip-rule="evenodd" d="M6 9.00052C6.41421 9.00052 6.75 9.3363 6.75 9.75052V11.2505C6.75 14.1363 9.11421 16.5005 12 16.5005C14.8858 16.5005 17.25 14.1363 17.25 11.2505V9.75052C17.25 9.3363 17.5858 9.00052 18 9.00052C18.4142 9.00052 18.75 9.3363 18.75 9.75052V11.2505C18.75 14.7113 16.1143 17.5831 12.75 17.9589V20.2505H15C15.4142 20.2505 15.75 20.5863 15.75 21.0005C15.75 21.4147 15.4142 21.7505 15 21.7505H9C8.58579 21.7505 8.25 21.4147 8.25 21.0005C8.25 20.5863 8.58579 20.2505 9 20.2505H11.25V17.9589C7.88568 17.5831 5.25 14.7113 5.25 11.2505V9.75052C5.25 9.3363 5.58579 9.00052 6 9.00052Z" fill="#2377F1"/>
<path d="M12 15.0005C11.505 14.9994 11.0153 14.8988 10.56 14.7047C10.1046 14.5106 9.69287 14.2271 9.34922 13.8708C8.6457 13.1613 8.25068 12.2028 8.25 11.2036V6.00052C8.24808 5.50752 8.34376 5.01902 8.53154 4.56318C8.71931 4.10734 8.99546 3.69318 9.34406 3.34458C9.69267 2.99598 10.1068 2.71983 10.5627 2.53205C11.0185 2.34428 11.507 2.2486 12 2.25052C14.1028 2.25052 15.75 3.8977 15.75 6.00052V11.2036C15.75 13.2971 14.0677 15.0005 12 15.0005Z" fill="#2377F1"/>
</g>
</g>
</svg>
